<?xml version="1.0" standalone="no"?><svg xmlns="http://www.w3.org/2000/svg" viewBox="0 0 1440 320"><path fill="#0A1931" fill-opacity="1" d="M0,160L21.8,160C43.6,160,87,160,131,165.3C174.5,171,218,181,262,197.3C305.5,213,349,235,393,250.7C436.4,267,480,277,524,245.3C567.3,213,611,139,655,90.7C698.2,43,742,21,785,37.3C829.1,53,873,107,916,149.3C960,192,1004,224,1047,213.3C1090.9,203,1135,149,1178,122.7C1221.8,96,1265,96,1309,117.3C1352.7,139,1396,181,1418,202.7L1440,224L1440,0L1418.2,0C1396.4,0,1353,0,1309,0C1265.5,0,1222,0,1178,0C1134.5,0,1091,0,1047,0C1003.6,0,960,0,916,0C872.7,0,829,0,785,0C741.8,0,698,0,655,0C610.9,0,567,0,524,0C480,0,436,0,393,0C349.1,0,305,0,262,0C218.2,0,175,0,131,0C87.3,0,44,0,22,0L0,0Z"></path></svg>